<svg width="1280" height="729" viewBox="0 0 1280 729" fill="none" xmlns="http://www.w3.org/2000/svg">
<path fill-rule="evenodd" clip-rule="evenodd" d="M872.991 489.135C836.245 433.634 831.734 358.049 853.702 295.768C873.615 239.31 937.871 217.681 982.613 178.338C1019.16 146.2 1045.82 103.259 1091.56 86.6109C1141.21 68.5414 1197.92 60.4767 1246.53 82.2785C1294.77 103.914 1326.99 151.738 1346.66 201.029C1364.26 245.122 1348.42 292.208 1349.23 339.536C1350.15 393.745 1376.83 450.512 1351.73 498.184C1324.76 549.406 1269.97 581.292 1214.14 596.071C1157.24 611.133 1098.52 597.887 1042 580.17C979.554 560.597 909.324 544.012 872.991 489.135Z" fill="url(#paint0_linear)"/>
<path fill-rule="evenodd" clip-rule="evenodd" d="M-123.904 110.561C-98.0514 82.0008 -57.3073 67.5969 -20.6106 69.5431C12.6548 71.3074 32.2853 102.442 59.2201 120.273C81.2224 134.839 107.924 142.374 122.582 164.338C138.491 188.177 149.794 217.405 143.795 247.005C137.842 276.38 115.633 301.287 91.0977 319.682C69.1494 336.137 41.4989 335.076 15.7412 343.01C-13.7613 352.097 -41.5296 375.443 -70.6257 369.495C-101.889 363.105 -125.972 338.692 -140.835 311.004C-155.984 282.785 -155.889 249.1 -153.084 215.891C-149.985 179.202 -149.465 138.799 -123.904 110.561Z" fill="url(#paint1_linear)"/>
<defs>
<linearGradient id="paint0_linear" x1="1325" y1="80.5" x2="1196.95" y2="449.136" gradientUnits="userSpaceOnUse">
<stop stop-color="#FD6721"/>
<stop offset="1" stop-color="#FC9927"/>
</linearGradient>
<linearGradient id="paint1_linear" x1="387.978" y1="192.466" x2="-66.507" y2="248.316" gradientUnits="userSpaceOnUse">
<stop stop-color="#FD6721"/>
<stop offset="1" stop-color="#FC9927"/>
</linearGradient>
</defs>
</svg>
