<svg width="1280" height="729" viewBox="0 0 1280 729" fill="none" xmlns="http://www.w3.org/2000/svg">
<path fill-rule="evenodd" clip-rule="evenodd" d="M872.991 489.135C836.245 433.634 831.734 358.049 853.702 295.768C873.615 239.31 937.871 217.681 982.613 178.338C1019.16 146.2 1045.82 103.259 1091.56 86.6109C1141.21 68.5414 1197.92 60.4767 1246.53 82.2785C1294.77 103.914 1326.99 151.738 1346.66 201.029C1364.26 245.122 1348.42 292.208 1349.23 339.536C1350.15 393.745 1376.83 450.512 1351.73 498.184C1324.76 549.406 1269.97 581.292 1214.14 596.071C1157.24 611.133 1098.52 597.887 1042 580.17C979.554 560.597 909.324 544.012 872.991 489.135Z" fill="url(#paint0_linear)"/>
<path fill-rule="evenodd" clip-rule="evenodd" d="M-22.8219 363.561C3.03052 335.001 43.7746 320.597 80.4713 322.543C113.737 324.307 133.367 355.442 160.302 373.273C182.304 387.839 209.006 395.374 223.664 417.338C239.573 441.177 250.876 470.405 244.877 500.005C238.923 529.38 216.715 554.287 192.18 572.682C170.231 589.137 142.581 588.076 116.823 596.01C87.3206 605.097 59.5523 628.443 30.4562 622.495C-0.807551 616.105 -24.8897 591.692 -39.7529 564.004C-54.9016 535.785 -54.8069 502.1 -52.0017 468.891C-48.9028 432.203 -48.3832 391.799 -22.8219 363.561Z" fill="url(#paint1_linear)"/>
<defs>
<linearGradient id="paint0_linear" x1="1325" y1="80.5" x2="1196.95" y2="449.136" gradientUnits="userSpaceOnUse">
<stop stop-color="#FD6721"/>
<stop offset="1" stop-color="#FC9927"/>
</linearGradient>
<linearGradient id="paint1_linear" x1="489.06" y1="445.466" x2="34.5749" y2="501.316" gradientUnits="userSpaceOnUse">
<stop stop-color="#FD6721"/>
<stop offset="1" stop-color="#FC9927"/>
</linearGradient>
</defs>
</svg>
